# xmcd
#
# Track frame offsets:
#	150
#	17495
#	29383
#	47010
#	67289
#	80676
#	100221
#	117217
#	131131
#	149396
#	168595
#	186879
#
# Disc length: 2761 seconds
#
# Revision: 0
# Processed by: cddbd v1.5.2PL0 Copyright (c) Steve Scherf et al.
# Submitted via: EasyCDDAExtractor 16.0.1.1
#
DISCID=ac0ac70c
DTITLE=Cooder Graw
DYEAR=1999
DGENRE=Country
TTITLE0=Motel Lights
TTITLE1=Llano Estacado
TTITLE2=State Line
TTITLE3=She Loves Too Much
TTITLE4=18 Wheels Of Loving
TTITLE5=Two More Tears In Texas
TTITLE6=My Give A Damn Is Broken
TTITLE7=Dirty Little Hometown Girl
TTITLE8=West Texas Wind
TTITLE9=Pictures In The Closet
TTITLE10=Shotgun Wedding
TTITLE11=Memphis, Texas
EXTD=
EXTT0=
EXTT1=
EXTT2=
EXTT3=
EXTT4=
EXTT5=
EXTT6=
EXTT7=
EXTT8=
EXTT9=
EXTT10=
EXTT11=
PLAYORDER=
